<svg fill="none" xmlns="http://www.w3.org/2000/svg" viewBox="0 0 208 69"><path d="M182.752 13c-.752 0-1.484.1554-2.131.5218l-20.489 11.8321c-1.326.7642-2.132 2.2068-2.132 3.7419v23.6213c0 1.5339.806 2.9747 2.132 3.7407l5.351 3.0889c2.599 1.2812 3.558 1.2613 4.741 1.2613 3.849 0 6.047-2.3356 6.047-6.3944V31.0964c0-.3295-.286-.5653-.609-.5653h-2.567c-.329 0-.609.2358-.609.5653v23.3172c0 1.7987-1.874 3.6083-4.915 2.0877l-5.569-3.2624c-.197-.107-.348-.2963-.348-.5218V29.0952c0-.2237.15-.4516.348-.5653l20.446-11.788c.092-.054.197-.0824.304-.0824.107 0 .212.0284.305.0824l20.446 11.7886c.194.1173.348.3343.348.5659v23.6213c0 .2255-.114.4565-.305.5653l-20.489 11.7886c-.176.1046-.418.1046-.609 0l-5.264-3.1318c-.08-.0435-.17-.0662-.261-.0662s-.181.0227-.261.0662c-1.453.8234-1.726.919-3.089 1.3918-.335.1173-.845.2993.175.8706l6.873 4.0448c.648.3739 1.383.5692 2.132.5659.748.0047 1.483-.1905 2.131-.5653l20.489-11.7892c1.326-.7709 2.131-2.2068 2.131-3.7407V29.0958c0-1.5345-.805-2.9747-2.131-3.7407L184.884 13.523c-.642-.367-1.379-.5224-2.131-.5224L182.752 13Z" fill="#83CD29"/><path d="M188.227 29.8788c-5.835 0-9.309 2.4832-9.309 6.6126 0 4.4789 3.448 5.7099 9.048 6.2637 6.699.656 7.221 1.6397 7.221 2.9584 0 2.2872-1.824 3.2624-6.133 3.2624-5.416 0-6.606-1.3519-7.004-4.0454-.047-.289-.27-.5224-.566-.5224h-2.653c-.327 0-.609.2818-.609.6095 0 3.448 1.875 7.5255 10.832 7.5255 6.483 0 10.222-2.5448 10.222-7.0038 0-4.4196-3.02-5.6065-9.309-6.4378-6.355-.841-6.96-1.2527-6.96-2.7407 0-1.2285.513-2.8719 5.22-2.8719 4.204 0 5.758.907 6.395 3.7419.055.2661.29.4783.565.4783h2.654c.163 0 .322-.1004.435-.2177.111-.1251.19-.266.174-.4347-.411-4.8816-3.666-7.1779-10.223-7.1779Zm-68.348-15.3415h-2.673V.874023h40.396V14.5373h-2.674V3.25024h-10.693V46.0221h4.753v2.3762H125.82v-2.3762h4.752V3.25024h-10.693V14.5373ZM74.4502 6.99284 80.5689.874086h23.4651l4.158 4.158374V.280029h2.674V16.3195h-2.674V8.71559l-5.465-5.46529H88.1134v42.7719h15.9796l5.347-5.3465 1.842 1.8416-5.882 5.8811H80.5689l-6.1187-6.1188V6.99284ZM70.3087.874023V3.25024h-4.7524V46.0221h4.7524v2.3762H47.1406v-2.3762h4.7525V3.25024h-4.7525V.874023h23.1681ZM42.9556 6.39872V22.0817l-6.1187 6.1188H19.0153v17.8216h4.7524v2.3762H.599609v-2.3762H5.35204V3.25024H.599609V.874023H37.4309l5.5247 5.524697ZM19.0153 25.8243h10.2771V3.25024H19.0153V25.8243Z" fill="#83CD29"/></svg>