<svg width="301" height="100" viewBox="0 0 301 100" fill="none" xmlns="http://www.w3.org/2000/svg">
<path d="M264.709 18.7232C263.619 18.7232 262.558 18.9485 261.619 19.4797L231.911 36.6356C229.989 37.7437 228.82 39.8354 228.82 42.0612V76.3107C228.82 78.5348 229.989 80.6238 231.911 81.7345L239.67 86.2133C243.439 88.0709 244.829 88.042 246.544 88.042C252.125 88.042 255.312 84.6555 255.312 78.7706V44.962C255.312 44.4842 254.898 44.1423 254.429 44.1423H250.707C250.231 44.1423 249.825 44.4842 249.825 44.962V78.7706C249.825 81.3786 247.107 84.0024 242.698 81.7976L234.624 77.0673C234.338 76.9121 234.119 76.6377 234.119 76.3107V42.0603C234.119 41.7359 234.335 41.4054 234.624 41.2406L264.268 24.1487C264.402 24.0705 264.555 24.0292 264.71 24.0292C264.865 24.0292 265.017 24.0705 265.151 24.1487L294.796 41.2415C295.079 41.4116 295.301 41.7263 295.301 42.0621V76.3116C295.301 76.6386 295.137 76.9735 294.86 77.1313L265.151 94.224C264.897 94.3757 264.546 94.3757 264.268 94.224L256.636 89.683C256.52 89.62 256.39 89.587 256.258 89.587C256.126 89.587 255.996 89.62 255.88 89.683C253.773 90.877 253.377 91.0155 251.401 91.7011C250.914 91.8711 250.175 92.135 251.653 92.9634L261.619 98.8282C262.559 99.3703 263.625 99.6534 264.71 99.6487C265.795 99.6555 266.862 99.3725 267.8 98.829L297.509 81.7354C299.431 80.6177 300.599 78.5356 300.599 76.3116V42.0612C300.599 39.8363 299.431 37.7481 297.509 36.6374L267.8 19.4815C266.869 18.9494 265.801 18.7241 264.71 18.7241L264.709 18.7232Z" fill="#83CD29"/>
<path d="M272.647 43.1965C264.188 43.1965 259.15 46.7969 259.15 52.7844C259.15 59.2785 264.15 61.0634 272.269 61.8664C281.983 62.8175 282.739 64.2438 282.739 66.1558C282.739 69.4721 280.095 70.8862 273.847 70.8862C265.994 70.8862 264.269 68.926 263.692 65.0205C263.623 64.6015 263.3 64.2631 262.871 64.2631H259.023C258.55 64.2631 258.141 64.6716 258.141 65.1468C258.141 70.1463 260.86 76.0583 273.847 76.0583C283.247 76.0583 288.669 72.3686 288.669 65.9033C288.669 59.4951 284.289 57.7742 275.17 56.5688C265.957 55.3494 265.078 54.7524 265.078 52.595C265.078 50.8137 265.824 48.431 272.647 48.431C278.743 48.431 280.996 49.7459 281.92 53.8565C282 54.2422 282.34 54.5499 282.739 54.5499H286.588C286.824 54.5499 287.054 54.4044 287.218 54.2343C287.379 54.0529 287.493 53.8486 287.47 53.604C286.874 46.526 282.154 43.1965 272.647 43.1965Z" fill="#83CD29"/>
<path d="M173.548 20.9522H169.672V1.1413H228.243V20.9522H224.367V4.58667H208.863V66.6034H215.754V70.0488H182.161V66.6034H189.052V4.58667H173.548V20.9522Z" fill="#83CD29"/>
<path d="M107.679 10.0132L116.551 1.14138H150.574L156.603 7.17078V0.280029H160.479V23.5363H156.603V12.5111L148.679 4.58675H127.49V66.6035H150.66L158.412 58.8514L161.082 61.5215L152.555 70.0488H116.551L107.679 61.177V10.0132Z" fill="#83CD29"/>
<path d="M101.673 1.1413V4.58667H94.7827V66.6034H101.673V70.0488H68.0811V66.6034H74.9718V4.58667H68.0811V1.1413H101.673Z" fill="#83CD29"/>
<path d="M62.0134 9.15179V31.8913L53.1415 40.7631H27.3013V66.6034H34.192V70.0488H0.599609V66.6034H7.49036V4.58667H0.599609V1.1413H54.0029L62.0134 9.15179ZM27.3013 37.3177H42.2025V4.58667H27.3013V37.3177Z" fill="#83CD29"/>
</svg>
